<?xml version="1.0" encoding="utf-8"?>
<svg xmlns="http://www.w3.org/2000/svg"
	xmlns:xlink="http://www.w3.org/1999/xlink"
	width="29px" height="28px" viewBox="0 0 29 28">
<circle cx="14.50" cy="13.50" r="13.50" fill="rgb(255,255,255)"/><path fillRule="evenodd" d="M 17.8 14.79C 17.8 14.79 17.8 14.79 17.8 14.79 17.8 14.79 16.36 15.99 15.71 18.42 15.29 19.97 15.41 20.96 14.61 20.96 14.59 20.96 14.58 20.96 14.56 20.94 14.55 20.96 14.53 20.96 14.52 20.96 13.72 20.96 13.84 19.97 13.42 18.42 13.42 18.42 11.33 14.79 11.33 14.79 11.33 14.79 11.34 14.79 11.34 14.79 10.51 13.96 10 12.82 10 11.56 10 9.04 12.04 7 14.56 7 17.08 7 19.13 9.04 19.13 11.56 19.13 12.82 18.62 13.96 17.8 14.79ZM 14.56 9.37C 13.35 9.37 12.37 10.35 12.37 11.56 12.37 12.77 13.35 13.75 14.56 13.75 15.77 13.75 16.75 12.77 16.75 11.56 16.75 10.35 15.77 9.37 14.56 9.37Z" fill="rgb(58,99,161)"/></svg>