<?xml version="1.0" encoding="utf-8"?>
<svg xmlns="http://www.w3.org/2000/svg"
	xmlns:xlink="http://www.w3.org/1999/xlink"
	width="28px" height="28px" viewBox="0 0 28 28">
<circle cx="13.50" cy="13.50" r="13.50" fill="rgb(255,255,255)"/><path fillRule="evenodd" d="M 17.78 19.65C 16.86 19.83 13.61 20 13.61 20 13.61 20 13.44 20 13.44 20 13.44 20 10.13 19.83 9.2 19.65 8.28 19.48 7.23 18.44 7.23 18.44 7.23 18.44 7.58 16 7.7 15.54 7.81 15.07 8.62 14.84 9.09 14.61 9.55 14.37 11 13.74 11 13.74 11 13.74 11.24 13.16 11.35 12.92 11.47 12.69 12.01 12.46 12.01 12.46 12.01 12.46 12.01 11.24 12.01 11.24 12.01 11.24 11.29 10.55 11.29 10.55 11.29 10.55 11.06 9.68 11.06 7.99 11.06 6.66 12.01 6.09 13.07 5.91 13.09 5.87 13.12 5.85 13.14 5.85 13.27 5.85 13.34 5.85 13.47 5.86 13.59 5.85 13.72 5.85 13.85 5.85 13.87 5.85 13.9 5.87 13.92 5.91 14.98 6.09 15.93 6.66 15.93 7.99 15.93 9.68 15.7 10.55 15.7 10.55 15.7 10.55 14.98 11.24 14.98 11.24 14.98 11.24 14.98 12.46 14.98 12.46 14.98 12.46 15.52 12.69 15.64 12.92 15.75 13.16 15.99 13.74 15.99 13.74 15.99 13.74 17.44 14.37 17.9 14.61 18.36 14.84 19.18 15.07 19.29 15.54 19.41 16 19.76 18.44 19.76 18.44 19.76 18.44 18.71 19.48 17.78 19.65Z" fill="rgb(172,172,172)"/></svg>