<?xml version="1.0" encoding="utf-8"?>
<svg xmlns="http://www.w3.org/2000/svg"
	xmlns:xlink="http://www.w3.org/1999/xlink"
	width="26px" height="26px" viewBox="0 0 26 26">
<path fillRule="evenodd" d="M 12.75 0.66C 12.75 0.66 16.65 9.51 16.65 9.51 16.65 9.51 25.49 9.51 25.49 9.51 25.49 9.51 18.3 15.49 18.3 15.49 18.3 15.49 20.85 25.42 20.85 25.42 20.85 25.42 12.69 19.51 12.69 19.51 12.69 19.51 4.68 25.59 4.68 25.59 4.68 25.59 7.2 15.36 7.2 15.36 7.2 15.36 0.17 9.51 0.17 9.51 0.17 9.51 9.15 9.51 9.15 9.51 9.15 9.51 12.75 0.66 12.75 0.66Z" fill="rgb(49,189,235)" opacity="0.70"/></svg>