<?xml version="1.0" encoding="utf-8"?>
<svg xmlns="http://www.w3.org/2000/svg"
	xmlns:xlink="http://www.w3.org/1999/xlink"
	width="20px" height="20px" viewBox="0 0 20 20">
<path fillRule="evenodd" d="M 19.04 20C 19.04 20 0.99 20 0.99 20 0.44 20-0 19.56-0 19.01-0 19.01-0 3-0 3-0 2.46 0.44 2.01 0.99 2.01 0.99 2.01 3.99 2.01 3.99 2.01 3.99 2.01 3.99 4.02 3.99 4.02 3.99 4.57 4.43 5.02 4.98 5.02 4.98 5.02 5.97 5.02 5.97 5.02 6.52 5.02 6.96 4.57 6.96 4.02 6.96 4.02 6.96 2.01 6.96 2.01 6.96 2.01 13.99 2.01 13.99 2.01 13.99 2.01 13.99 4.02 13.99 4.02 13.99 4.57 14.43 5.02 14.98 5.02 14.98 5.02 15.97 5.02 15.97 5.02 16.52 5.02 16.96 4.57 16.96 4.02 16.96 4.02 16.96 2.01 16.96 2.01 16.96 2.01 19.04 2.01 19.04 2.01 19.58 2.01 20.03 2.46 20.03 3 20.03 3 20.03 19.01 20.03 19.01 20.03 19.56 19.58 20 19.04 20ZM 17.98 7.99C 17.98 7.44 17.54 7 16.99 7 16.99 7 3 7 3 7 2.45 7 2.01 7.44 2.01 7.99 2.01 7.99 2.01 17.03 2.01 17.03 2.01 17.57 2.45 18.02 3 18.02 3 18.02 16.99 18.02 16.99 18.02 17.54 18.02 17.98 17.57 17.98 17.03 17.98 17.03 17.98 7.99 17.98 7.99ZM 16.09 15.97C 16.09 15.97 13.91 15.97 13.91 15.97 13.41 15.97 13 15.56 13 15.06 13 15.06 13 13.91 13 13.91 13 13.41 13.41 13 13.91 13 13.91 13 16.09 13 16.09 13 16.6 13 17.01 13.41 17.01 13.91 17.01 13.91 17.01 15.06 17.01 15.06 17.01 15.56 16.6 15.97 16.09 15.97ZM 16.09 11.97C 16.09 11.97 13.91 11.97 13.91 11.97 13.41 11.97 13 11.56 13 11.06 13 11.06 13 9.91 13 9.91 13 9.41 13.41 9 13.91 9 13.91 9 16.09 9 16.09 9 16.6 9 17.01 9.41 17.01 9.91 17.01 9.91 17.01 11.06 17.01 11.06 17.01 11.56 16.6 11.97 16.09 11.97ZM 11.09 15.97C 11.09 15.97 8.91 15.97 8.91 15.97 8.41 15.97 8 15.56 8 15.06 8 15.06 8 13.91 8 13.91 8 13.41 8.41 13 8.91 13 8.91 13 11.09 13 11.09 13 11.6 13 12.01 13.41 12.01 13.91 12.01 13.91 12.01 15.06 12.01 15.06 12.01 15.56 11.6 15.97 11.09 15.97ZM 11.09 11.97C 11.09 11.97 8.91 11.97 8.91 11.97 8.41 11.97 8 11.56 8 11.06 8 11.06 8 9.91 8 9.91 8 9.41 8.41 9 8.91 9 8.91 9 11.09 9 11.09 9 11.6 9 12.01 9.41 12.01 9.91 12.01 9.91 12.01 11.06 12.01 11.06 12.01 11.56 11.6 11.97 11.09 11.97ZM 6.09 15.97C 6.09 15.97 3.91 15.97 3.91 15.97 3.41 15.97 3 15.56 3 15.06 3 15.06 3 13.91 3 13.91 3 13.41 3.41 13 3.91 13 3.91 13 6.09 13 6.09 13 6.6 13 7.01 13.41 7.01 13.91 7.01 13.91 7.01 15.06 7.01 15.06 7.01 15.56 6.6 15.97 6.09 15.97ZM 6.09 11.97C 6.09 11.97 3.91 11.97 3.91 11.97 3.41 11.97 3 11.56 3 11.06 3 11.06 3 9.91 3 9.91 3 9.41 3.41 9 3.91 9 3.91 9 6.09 9 6.09 9 6.6 9 7.01 9.41 7.01 9.91 7.01 9.91 7.01 11.06 7.01 11.06 7.01 11.56 6.6 11.97 6.09 11.97ZM 15.5 4C 15.21 4 14.98 3.77 14.98 3.49 14.98 3.49 14.98 0.52 14.98 0.52 14.98 0.23 15.21-0 15.5-0 15.79-0 16.02 0.23 16.02 0.52 16.02 0.52 16.02 3.49 16.02 3.49 16.02 3.77 15.79 4 15.5 4ZM 5.5 4C 5.21 4 4.98 3.77 4.98 3.49 4.98 3.49 4.98 0.52 4.98 0.52 4.98 0.23 5.21-0 5.5-0 5.79-0 6.02 0.23 6.02 0.52 6.02 0.52 6.02 3.49 6.02 3.49 6.02 3.77 5.79 4 5.5 4Z" fill="rgb(255,255,255)"/></svg>