<?xml version="1.0" encoding="utf-8"?>
<svg xmlns="http://www.w3.org/2000/svg"
	xmlns:xlink="http://www.w3.org/1999/xlink"
	width="29px" height="28px" viewBox="0 0 29 28">
<circle cx="14.50" cy="13.50" r="13.50" fill="rgb(255,255,255)"/><path fillRule="evenodd" d="M 21.12 16.18C 21.26 16.64 21.23 17.26 20.93 17.59 20.54 18.02 19.51 17.91 19.51 17.91 19.51 17.91 19.72 18.48 19.19 18.8 18.54 19.18 17.94 18.8 17.94 18.8 17.94 18.8 17.95 19.43 17.44 19.73 16.88 20.05 16.27 19.76 16.27 19.76 16.27 19.76 16.2 20.31 15.7 20.51 15.15 20.73 14.27 20.51 13.88 20.15 13.85 20.13 13.81 20.1 13.75 20.05 13.69 20.14 13.62 20.23 13.56 20.3 13.27 20.58 13.13 20.76 12.56 20.55 11.99 20.33 12.24 19.8 12.24 19.8 12.24 19.8 11.67 20.05 11.14 19.66 10.78 19.4 10.74 18.76 10.74 18.76 10.74 18.76 9.82 18.87 9.46 18.55 9.1 18.23 9.21 17.8 9.21 17.8 9.21 17.8 8.39 17.87 8.07 17.38 7.76 16.89 7.88 16.55 8.43 15.68 8.3 15.55 8.2 15.45 8.14 15.38 7.61 14.7 6.25 13.35 6.25 13.35 6.25 13.35 9.67 9.32 9.67 9.32 9.67 9.32 12.07 10.55 13.13 10.99 13.43 10.93 13.76 10.95 13.95 10.93 14.27 10.89 15.09 10.64 15.48 10.57 15.87 10.5 16.98 10.93 17.51 11 18.05 11.07 18.69 11.25 18.94 11.18 19.19 11.1 21.36 9.43 21.36 9.43 21.36 9.43 24.74 13.92 24.74 13.92 24.74 13.92 21.12 16.18 21.12 16.18ZM 20.33 16.01C 20.22 15.95 20.12 15.89 20.04 15.81 19.97 15.74 19.77 15.56 19.5 15.33 18.4 14.46 16.52 12.98 16.01 12.66 15.9 12.61 15.79 12.58 15.7 12.57 15.38 12.53 14.73 12.92 14.31 12.99 13.88 13.06 13.42 13.06 12.85 12.57 12.35 12.13 12.3 11.75 12.5 11.41 11.46 10.9 9.93 10.07 9.93 10.07 9.93 10.07 6.99 13.34 6.99 13.34 6.99 13.34 8.28 14.51 8.84 15.15 9.33 14.65 9.76 14.67 10 14.81 10.42 15.06 10.46 15.56 10.46 15.56 10.46 15.56 11.24 15.31 11.74 15.67 12.24 16.02 11.85 17.02 11.85 17.02 11.85 17.02 12.7 16.7 12.99 17.09 13.27 17.48 13.2 18.44 13.2 18.44 13.2 18.44 13.84 18.55 14.02 18.94 14.1 19.11 14.06 19.34 13.99 19.56 14.34 19.86 14.85 20.18 15.31 20.09 15.49 20.05 15.83 19.75 15.78 19.59 15.78 19.59 14.45 18.27 14.45 18.27 14.45 18.27 14.87 17.84 14.87 17.84 14.87 17.84 16.19 19.18 16.19 19.18 16.58 19.31 16.92 19.26 17.13 19.16 17.27 19.08 17.48 18.81 17.38 18.63 17.38 18.63 16.09 17.31 16.09 17.31 16.09 17.31 16.48 16.91 16.48 16.91 16.48 16.91 17.89 18.32 17.89 18.32 18.31 18.39 18.59 18.36 18.77 18.26 18.93 18.15 19.12 17.92 19.01 17.58 19.01 17.58 17.84 16.45 17.84 16.45 17.84 16.45 18.26 16.06 18.26 16.06 18.26 16.06 19.5 17.31 19.5 17.31 19.82 17.39 20.35 17.3 20.44 17.14 20.68 16.72 20.64 16.32 20.33 16.01Z" fill="rgb(137,194,27)"/></svg>