<?xml version="1.0" encoding="utf-8"?>
<svg xmlns="http://www.w3.org/2000/svg"
	xmlns:xlink="http://www.w3.org/1999/xlink"
	width="14px" height="13px" viewBox="0 0 14 13">
<path fillRule="evenodd" d="M 13.19 13.01C 13.19 13.01 1.48 13.01 1.48 13.01 1.12 13.01 0.83 12.72 0.83 12.36 0.83 12.36 0.83 1.95 0.83 1.95 0.83 1.59 1.12 1.3 1.48 1.3 1.48 1.3 3.43 1.3 3.43 1.3 3.43 1.3 3.43 2.6 3.43 2.6 3.43 2.96 3.72 3.25 4.08 3.25 4.08 3.25 4.73 3.25 4.73 3.25 5.09 3.25 5.38 2.96 5.38 2.6 5.38 2.6 5.38 1.3 5.38 1.3 5.38 1.3 9.29 1.3 9.29 1.3 9.29 1.3 9.29 2.6 9.29 2.6 9.29 2.96 9.58 3.25 9.94 3.25 9.94 3.25 10.59 3.25 10.59 3.25 10.95 3.25 11.24 2.96 11.24 2.6 11.24 2.6 11.24 1.3 11.24 1.3 11.24 1.3 13.19 1.3 13.19 1.3 13.55 1.3 13.84 1.59 13.84 1.95 13.84 1.95 13.84 12.36 13.84 12.36 13.84 12.72 13.55 13.01 13.19 13.01ZM 12.54 5.21C 12.54 4.85 12.25 4.56 11.89 4.56 11.89 4.56 2.78 4.56 2.78 4.56 2.42 4.56 2.13 4.85 2.13 5.21 2.13 5.21 2.13 11.06 2.13 11.06 2.13 11.42 2.42 11.71 2.78 11.71 2.78 11.71 11.89 11.71 11.89 11.71 12.25 11.71 12.54 11.42 12.54 11.06 12.54 11.06 12.54 5.21 12.54 5.21ZM 6.03 11.06C 6.03 11.06 6.03 10.33 6.03 10.33 6.03 10.33 7.68 7.14 7.68 7.14 7.68 7.14 5.38 7.14 5.38 7.14 5.38 7.14 5.38 5.84 5.38 5.84 5.38 5.84 9.29 5.84 9.29 5.84 9.29 5.84 9.29 7.14 9.29 7.14 9.29 7.14 7.31 11.06 7.31 11.06 7.31 11.06 6.03 11.06 6.03 11.06ZM 10.25 2.6C 10.08 2.6 9.94 2.46 9.94 2.29 9.94 2.29 9.94 0.32 9.94 0.32 9.94 0.14 10.08 0 10.25 0 10.43 0 10.57 0.14 10.57 0.32 10.57 0.32 10.57 2.29 10.57 2.29 10.57 2.46 10.43 2.6 10.25 2.6ZM 4.4 2.6C 4.22 2.6 4.08 2.46 4.08 2.29 4.08 2.29 4.08 0.32 4.08 0.32 4.08 0.14 4.22 0 4.4 0 4.57 0 4.71 0.14 4.71 0.32 4.71 0.32 4.71 2.29 4.71 2.29 4.71 2.46 4.57 2.6 4.4 2.6Z" fill="rgb(49,189,235)"/></svg>