<?xml version="1.0" encoding="utf-8"?>
<svg xmlns="http://www.w3.org/2000/svg"
	xmlns:xlink="http://www.w3.org/1999/xlink"
	width="29px" height="28px" viewBox="0 0 29 28">
<circle cx="14.50" cy="13.50" r="13.50" fill="rgb(255,255,255)"/><path fillRule="evenodd" d="M 17.54 13.23C 17.54 13.23 16.91 12.6 16.91 12.6 17.78 11.97 18.35 10.95 18.35 9.79 18.35 8.61 17.77 7.58 16.88 6.95 16.88 6.95 17.51 6.32 17.51 6.32 18.56 7.11 19.24 8.37 19.24 9.79 19.24 11.19 18.58 12.44 17.54 13.23ZM 18.24 15.21C 18.53 15.44 19.42 16.03 19.42 16.8 19.42 17.57 18.12 21.54 18 22.13 17.88 22.72 17.82 23 17.82 23 17.82 23 12.08 23 12.08 23 12.08 23 11.9 22.25 11.72 22.01 11.55 21.78 10.97 20.88 10.42 19.65 9.71 18.05 9.83 17.28 9.59 16.69 9.36 16.09 8.46 15.19 9.06 14.97 10.18 14.55 10.6 15.26 10.95 15.74 11.31 16.21 11.6 16.69 11.84 17.1 12.08 17.51 12.49 16.63 12.55 15.44 12.61 14.26 12.79 12.19 12.79 10.23 12.79 8.28 13.26 7.92 13.62 7.92 13.97 7.92 14.15 8.28 14.21 9.28 14.27 10.29 14.45 13.84 14.45 13.84 14.45 13.84 14.86 13.67 15.39 13.67 15.93 13.67 16.22 14.38 16.22 14.38 16.22 14.38 17.05 14.44 17.35 14.44 17.64 14.44 17.94 14.97 18.24 15.21ZM 8.76 9.79C 8.76 10.95 9.33 11.97 10.21 12.6 10.21 12.6 9.57 13.23 9.57 13.23 8.54 12.44 7.87 11.19 7.87 9.79 7.87 8.37 8.56 7.11 9.61 6.32 9.61 6.32 10.24 6.95 10.24 6.95 9.35 7.58 8.76 8.61 8.76 9.79Z" fill="rgb(226,168,11)"/></svg>