<?xml version="1.0" encoding="utf-8"?>
<svg xmlns="http://www.w3.org/2000/svg"
	xmlns:xlink="http://www.w3.org/1999/xlink"
	width="19px" height="12px" viewBox="0 0 19 12">
<path fillRule="evenodd" d="M 15.12 7.18C 15.26 7.64 15.23 8.26 14.93 8.59 14.54 9.02 13.51 8.91 13.51 8.91 13.51 8.91 13.72 9.48 13.19 9.8 12.54 10.18 11.94 9.8 11.94 9.8 11.94 9.8 11.95 10.43 11.44 10.73 10.88 11.05 10.27 10.76 10.27 10.76 10.27 10.76 10.2 11.31 9.7 11.51 9.15 11.73 8.27 11.51 7.88 11.15 7.85 11.13 7.81 11.1 7.75 11.05 7.69 11.14 7.62 11.23 7.56 11.3 7.27 11.58 7.13 11.76 6.56 11.55 5.99 11.33 6.24 10.8 6.24 10.8 6.24 10.8 5.67 11.05 5.14 10.66 4.78 10.4 4.74 9.76 4.74 9.76 4.74 9.76 3.82 9.87 3.46 9.55 3.1 9.23 3.21 8.8 3.21 8.8 3.21 8.8 2.39 8.87 2.07 8.38 1.76 7.89 1.88 7.55 2.43 6.68 2.3 6.55 2.2 6.45 2.14 6.38 1.61 5.7 0.25 4.35 0.25 4.35 0.25 4.35 3.68 0.32 3.68 0.32 3.68 0.32 6.07 1.55 7.13 1.99 7.43 1.93 7.76 1.95 7.95 1.93 8.27 1.89 9.09 1.64 9.48 1.57 9.87 1.5 10.98 1.93 11.51 2 12.05 2.07 12.69 2.25 12.94 2.18 13.19 2.1 15.36 0.43 15.36 0.43 15.36 0.43 18.74 4.92 18.74 4.92 18.74 4.92 15.12 7.18 15.12 7.18ZM 14.33 7.01C 14.22 6.95 14.12 6.88 14.04 6.81 13.97 6.74 13.77 6.56 13.5 6.33 12.4 5.46 10.52 3.98 10.01 3.66 9.9 3.61 9.79 3.58 9.7 3.57 9.38 3.53 8.73 3.92 8.31 3.99 7.88 4.06 7.42 4.06 6.85 3.57 6.35 3.13 6.3 2.75 6.5 2.41 5.46 1.9 3.93 1.07 3.93 1.07 3.93 1.07 0.99 4.34 0.99 4.34 0.99 4.34 2.28 5.51 2.84 6.15 3.33 5.65 3.76 5.67 4 5.81 4.42 6.06 4.46 6.56 4.46 6.56 4.46 6.56 5.24 6.31 5.74 6.67 6.24 7.02 5.85 8.02 5.85 8.02 5.85 8.02 6.7 7.7 6.99 8.09 7.27 8.48 7.2 9.44 7.2 9.44 7.2 9.44 7.84 9.55 8.02 9.94 8.1 10.11 8.06 10.34 7.99 10.56 8.34 10.86 8.85 11.18 9.31 11.09 9.49 11.05 9.83 10.75 9.78 10.59 9.78 10.59 8.45 9.27 8.45 9.27 8.45 9.27 8.87 8.84 8.87 8.84 8.87 8.84 10.19 10.18 10.19 10.18 10.58 10.31 10.92 10.26 11.13 10.16 11.27 10.08 11.48 9.81 11.38 9.63 11.38 9.63 10.09 8.31 10.09 8.31 10.09 8.31 10.48 7.91 10.48 7.91 10.48 7.91 11.89 9.32 11.89 9.32 12.31 9.39 12.59 9.36 12.77 9.26 12.93 9.15 13.12 8.92 13.01 8.58 13.01 8.58 11.84 7.45 11.84 7.45 11.84 7.45 12.26 7.06 12.26 7.06 12.26 7.06 13.5 8.31 13.5 8.31 13.82 8.39 14.35 8.3 14.44 8.14 14.68 7.72 14.64 7.32 14.33 7.01Z" fill="rgb(49,189,235)"/></svg>