<?xml version="1.0" encoding="utf-8"?>
<svg xmlns="http://www.w3.org/2000/svg"
	xmlns:xlink="http://www.w3.org/1999/xlink"
	width="15px" height="20px" viewBox="0 0 15 20">
<path fillRule="evenodd" d="M 0.08-0C 0.08-0 7.54-0.02 7.54-0.02 7.54-0.02 10.51 5.99 10.51 5.99 10.51 5.99 8.78 5.97 8.78 5.97 8.78 5.97 12.58 11.97 12.58 11.97 12.58 11.97 10.79 11.96 10.79 11.96 10.79 11.96 14.72 20.05 14.72 20.05 14.72 20.05 6.22 12 6.22 12 6.22 12 8.07 11.98 8.07 11.98 8.07 11.98 2.72 6.04 2.72 6.04 2.72 6.04 4.76 5.97 4.76 5.97 4.76 5.97 0.08-0 0.08-0Z" fill="rgb(177,217,245)"/></svg>