<?xml version="1.0" encoding="utf-8"?>
<svg xmlns="http://www.w3.org/2000/svg"
	xmlns:xlink="http://www.w3.org/1999/xlink"
	width="6px" height="10px" viewBox="0 0 6 10">
<path fillRule="evenodd" d="M 4.93 4.93C 4.84 5.01 4.74 5.05 4.63 5.05 4.63 5.05 0.74 8.94 0.74 8.94 0.57 9.11 0.29 9.11 0.12 8.94-0.05 8.77-0.05 8.49 0.12 8.32 0.12 8.32 3.91 4.53 3.91 4.53 3.91 4.53 0.12 0.74 0.12 0.74-0.05 0.57-0.05 0.29 0.12 0.12 0.29-0.05 0.57-0.05 0.74 0.12 0.74 0.12 4.63 4.01 4.63 4.01 4.74 4.01 4.84 4.05 4.93 4.13 5.03 4.24 5.07 4.39 5.04 4.53 5.07 4.67 5.03 4.82 4.93 4.93Z" fill="rgb(49,189,235)"/></svg>