<?xml version="1.0" encoding="utf-8"?>
<svg xmlns="http://www.w3.org/2000/svg"
	xmlns:xlink="http://www.w3.org/1999/xlink"
	width="29px" height="28px" viewBox="0 0 29 28">
<circle cx="14.50" cy="13.50" r="13.50" fill="rgb(255,255,255)"/><path fillRule="evenodd" d="M 14.76 14.98C 14.38 14.98 14 15.01 14 15.01 14 15.01 14 16.49 14 16.49 14 16.49 17.74 16.49 17.74 16.49 17.74 16.49 17.74 18 17.74 18 17.74 18 14 18 14 18 14 18 14 21 14 21 14 21 11.98 21 11.98 21 11.98 21 11.98 18 11.98 18 11.98 18 9.22 18 9.22 18 9.22 18 9.22 16.49 9.22 16.49 9.22 16.49 11.98 16.49 11.98 16.49 11.98 16.49 11.98 15 11.98 15 11.98 15 9.22 15 9.22 15 9.22 15 9.22 13.49 9.22 13.49 9.22 13.49 11.98 13.49 11.98 13.49 11.98 13.49 11.98 7.05 11.98 7.05 11.98 7.05 13.07 7 14.82 7 18.02 7 19.98 8.61 19.98 11.04 19.98 13.81 18.1 14.98 14.76 14.98ZM 14.97 9.01C 14.38 9.01 14 8.99 14 8.99 14 8.99 14 13.39 14 13.39 14 13.39 14.33 13.4 14.74 13.4 16.26 13.4 18.01 12.96 18.01 11.11 18.01 9.27 16.44 9.01 14.97 9.01Z" fill="rgb(49,189,235)"/></svg>