<?xml version="1.0" encoding="utf-8"?>
<svg xmlns="http://www.w3.org/2000/svg"
	xmlns:xlink="http://www.w3.org/1999/xlink"
	width="104px" height="29px" viewBox="0 0 104 29">
<clipPath id="clip0"><path fillRule="evenodd" d="M-0.06 30C-0.06 30-0.06-1-0.06-1-0.06-1 105-1 105-1 105-1 105 30 105 30 105 30-0.06 30-0.06 30ZM 97 8.03C 97 8.03 97 3 97 3 97 1.9 96.1 1 95 1 95 1 10 1 10 1 8.9 1 8 1.9 8 3 8 3 8 8.02 8 8.02 4.61 8.26 1.94 11.08 1.94 14.53 1.94 17.98 4.61 20.8 8 21.04 8 21.04 8 26 8 26 8 27.1 8.9 28 10 28 10 28 95 28 95 28 96.1 28 97 27.1 97 26 97 26 97 21.04 97 21.04 100.36 20.76 103 17.96 103 14.53 103 11.1 100.36 8.3 97 8.03Z"/></clipPath><defs>
<symbol id="symbol0"><path fillRule="evenodd" d="M 103 14.53C 103 17.96 100.36 20.76 97 21.04 97 21.04 97 26 97 26 97 27.1 96.1 28 95 28 95 28 10 28 10 28 8.9 28 8 27.1 8 26 8 26 8 21.04 8 21.04 4.61 20.8 1.94 17.98 1.94 14.53 1.94 11.08 4.61 8.26 8 8.02 8 8.02 8 3 8 3 8 1.9 8.9 1 10 1 10 1 95 1 95 1 96.1 1 97 1.9 97 3 97 3 97 8.03 97 8.03 100.36 8.3 103 11.1 103 14.53Z"/></symbol></defs>
<g opacity="0.40"><use xlink:href="#symbol0" x="0" y="0" width="104" height="29" fill="rgb(255,255,255)"/><use xlink:href="#symbol0" x="0" y="0" width="104" height="29" fill="none" stroke="rgb(49,189,235)" stroke-width="1.00px" clip-path="url(#clip0)"/></g></svg>