<?xml version="1.0" encoding="UTF-8" standalone="no"?>
<svg width="17px" height="30px" viewBox="0 0 17 30" version="1.1" xmlns="http://www.w3.org/2000/svg" xmlns:xlink="http://www.w3.org/1999/xlink">
    <!-- Generator: Sketch 3.6.1 (26313) - http://www.bohemiancoding.com/sketch -->
    <title>Untitled</title>
    <desc>Created with Sketch.</desc>
    <defs></defs>
    <g id="Page-1" stroke="none" stroke-width="1" fill="none" fill-rule="evenodd">
        <path d="M7.55,0.014 L9.88,5.314 L15.18,5.314 L10.87,8.899 L12.4,14.844 L7.51,11.304 L2.71,14.945 L4.22,8.82 L0.01,5.314 L5.39,5.314 L7.55,0.014 Z M7.56,1.887 L9.45,6.054 L13.14,6.054 L10.02,8.646 L11.26,13.061 L7.54,10.423 L3.88,13.128 L5.1,8.594 L2.04,6.054 L5.81,6.054 L7.56,1.887 Z M7.55,15.014 L9.89,20.314 L15.18,20.314 L10.88,23.899 L12.4,29.844 L7.52,26.304 L2.72,29.945 L4.22,23.82 L0.01,20.314 L5.39,20.314 L7.55,15.014 Z" id="Shape_21_copy_5" fill="#49C3EC"></path>
    </g>
</svg>