<?xml version="1.0" encoding="utf-8"?>
<svg xmlns="http://www.w3.org/2000/svg"
	xmlns:xlink="http://www.w3.org/1999/xlink"
	width="23px" height="23px" viewBox="0 0 23 23">
<path fillRule="evenodd" d="M 11.73 0.18C 11.73 0.18 15.17 7.98 15.17 7.98 15.17 7.98 22.95 7.98 22.95 7.98 22.95 7.98 16.62 13.25 16.62 13.25 16.62 13.25 18.87 21.99 18.87 21.99 18.87 21.99 11.68 16.79 11.68 16.79 11.68 16.79 4.62 22.14 4.62 22.14 4.62 22.14 6.84 13.14 6.84 13.14 6.84 13.14 0.64 7.98 0.64 7.98 0.64 7.98 8.56 7.98 8.56 7.98 8.56 7.98 11.73 0.18 11.73 0.18Z" fill="rgb(178,216,245)"/></svg>