<?xml version="1.0" encoding="utf-8"?>
<svg xmlns="http://www.w3.org/2000/svg"
	xmlns:xlink="http://www.w3.org/1999/xlink"
	width="21px" height="21px" viewBox="0 0 21 21">
<path fillRule="evenodd" d="M 10.51 20.96C 4.72 20.96 0.03 16.27 0.03 10.48 0.03 4.69 4.72 0 10.51 0 16.3 0 21 4.69 21 10.48 21 16.27 16.3 20.96 10.51 20.96ZM 10.59 1.99C 10.82 2.04 11 2.23 11 2.47 11 2.75 10.77 2.98 10.5 2.98 10.22 2.98 9.99 2.75 9.99 2.47 9.99 2.24 10.16 2.04 10.39 1.99 5.81 2.06 2.12 5.74 2.01 10.3 2.09 10.12 2.26 10 2.47 10 2.75 10 2.97 10.22 2.97 10.5 2.97 10.78 2.75 11 2.47 11 2.26 11 2.09 10.88 2.01 10.7 2.11 15.32 5.88 19.03 10.52 19.03 15.23 19.03 19.04 15.21 19.04 10.51 19.04 5.83 15.26 2.03 10.59 1.99ZM 18.49 11C 18.21 11 17.99 10.78 17.99 10.5 17.99 10.22 18.21 10 18.49 10 18.77 10 18.99 10.22 18.99 10.5 18.99 10.78 18.77 11 18.49 11ZM 13.4 13.42C 13.25 13.56 13.02 13.56 12.87 13.42 12.87 13.42 11.8 12.46 10.74 11.51 10.65 11.54 10.55 11.57 10.45 11.57 9.92 11.57 9.5 11.14 9.5 10.61 9.5 10.27 9.69 9.98 9.97 9.81 9.97 9.81 10.21 4.38 10.21 4.38 10.21 4.23 10.33 4.11 10.48 4.11 10.48 4.11 10.52 4.11 10.52 4.11 10.66 4.11 10.78 4.23 10.78 4.38 10.78 4.38 11.02 9.86 11.02 9.86 11.23 10.03 11.38 10.27 11.4 10.56 12.36 11.69 13.44 12.86 13.44 12.86 13.58 13 13.58 13.24 13.44 13.38 13.44 13.38 13.4 13.42 13.4 13.42ZM 10.5 17.99C 10.77 17.99 11 18.22 11 18.49 11 18.77 10.77 19 10.5 19 10.22 19 9.99 18.77 9.99 18.49 9.99 18.22 10.22 17.99 10.5 17.99Z" fill="rgb(255,255,255)"/></svg>