<?xml version="1.0" encoding="utf-8"?>
<svg xmlns="http://www.w3.org/2000/svg"
	xmlns:xlink="http://www.w3.org/1999/xlink"
	width="17px" height="9px" viewBox="0 0 17 9">
<path fillRule="evenodd" d="M 8.29 9C 3.12 9 0.01 4.5 0.01 4.5 0.01 4.5 2.51-0 8.29-0 13.52-0 16.84 4.45 16.84 4.45 16.84 4.45 13.17 9 8.29 9ZM 8.23 1C 3.79 1 1.63 4.5 1.63 4.5 1.63 4.5 4.04 8 8.23 8 8.28 8 8.34 7.99 8.39 7.99 6.49 7.95 4.97 6.41 4.97 4.5 4.97 2.59 6.49 1.05 8.39 1.01 8.34 1.01 8.28 1 8.23 1ZM 8.7 1.02C 9.17 1.06 9.62 1.18 10.02 1.38 10.02 1.38 8.25 5.08 8.25 5.08 8.25 5.08 11.91 3.86 11.91 3.86 11.95 4.07 11.97 4.28 11.97 4.5 11.97 6.35 10.52 7.85 8.7 7.98 12.73 7.73 15.31 4.5 15.31 4.5 15.31 4.5 12.73 1.27 8.7 1.02Z" fill="rgb(49,189,235)"/></svg>