<?xml version="1.0" encoding="utf-8"?>
<svg xmlns="http://www.w3.org/2000/svg"
	xmlns:xlink="http://www.w3.org/1999/xlink"
	width="177px" height="130px" viewBox="0 0 177 130">
<style type="text/css"><![CDATA[
.style0 {
  font-size: 20px;
  font-family: "Arial";
  font-weight: 400;
  fill: rgb(104,104,104);
}
.style1 {
  font-size: 14px;
  font-family: "Arial";
  font-weight: 400;
  fill: rgb(48,177,217);
  text-transform: uppercase;
}
]]></style>
<filter filterUnits="objectBoundingBox" x="-7.89" y="-7.89" width="115.79" height="115.79" id="filter0">
<feGaussianBlur in="SourceAlpha" stdDeviation="1.50" result="dsBlurOut1"/>
<feFlood flood-color="rgb(0,0,0)" flood-opacity="0.30" result="dsFloodOut1"/>
<feComposite in="dsFloodOut1" in2="dsBlurOut1" operator="in" result="dsShadow1"/>
<feOffset in="dsShadow1" dx="-0.00" dy="1.00" result="dsOffset1"/>
<feComposite in="dsOffset1" in2="SourceAlpha" operator="out" result="dropShadow1"/>
<feBlend in="dropShadow1" in2="SourceGraphic" mode="normal" result="sourceGraphic"/>
</filter>
<clipPath id="clip0"><circle cx="21.00" cy="20.00" r="19.00"/></clipPath><defs>
<symbol id="symbol0"><circle cx="125.00" cy="103.00" r="19.00"/></symbol></defs>
<path fillRule="evenodd" d="M 126.8 79.59C 127.9 74.9 128.5 70.02 128.5 65 128.5 29.93 100.07 1.5 65 1.5 29.93 1.5 1.5 29.93 1.5 65 1.5 100.07 29.93 128.5 65 128.5 79.98 128.5 93.74 123.3 104.59 114.63 104.84 115.06 105.1 115.5 105.38 115.92 94.29 124.72 80.26 130 65 130 29.1 130-0 100.9-0 65-0 29.1 29.1-0 65-0 100.9-0 130 29.1 130 65 130 70.08 129.4 75.01 128.3 79.76 127.8 79.69 127.3 79.63 126.8 79.59Z" fill="rgb(49,189,235)"/><g><circle cx="125.00" cy="103.00" r="19.00" fill="rgb(233,247,253)" filter="url(#filter0)"/><use xlink:href="#symbol0" x="104" y="83" width="42" height="42" fill="none" stroke="rgb(255,255,255)" stroke-width="2.00px" stroke-opacity="0.30" clip-path="url(#clip0)"/></g><text transform="translate(125.00,110.00)" class="style0"><tspan x="-5.56" fill="rgb(103,103,103)">1</tspan></text><text transform="translate(162.00,112.00)" class="style1"><tspan x="-14.88 -2.04 7.29" fill="rgb(48,176,216)">шаг</tspan></text><path fillRule="evenodd" d="M 104.81 44.34C 104.61 44.61 103.35 46.17 101.52 48.41 101.52 48.41 89.29 38.3 89.29 38.3 90.99 36.19 92.19 34.69 92.44 34.37 93.22 33.37 96.08 32.98 97.24 33.98 98.4 34.99 103.34 38.7 104.42 39.93 105.51 41.17 105.66 43.18 104.81 44.34ZM 82.71 71.08C 81.32 72.47 78.38 73.71 73.36 69.46 68.33 65.21 70.81 61.45 71.73 60.18 72.61 58.97 82.17 47.13 88.01 39.89 88.01 39.89 100.27 49.94 100.27 49.94 94.08 57.5 83.7 70.09 82.71 71.08ZM 76.52 75.79C 76.22 75.88 73.64 76.98 71.34 77.96 71.34 77.96 66.91 74.02 66.91 74.02 67.33 71.56 67.79 68.9 67.87 68.53 68.02 67.83 68.41 67.68 69.18 68.3 69.95 68.92 76.21 73.94 76.76 74.56 77.3 75.18 77.06 75.64 76.52 75.79ZM 67.64 79.5C 66.63 79.81 66.01 79.35 66.17 78.42 66.19 78.26 66.35 77.33 66.56 76.11 66.56 76.11 69.69 78.66 69.69 78.66 68.62 79.11 67.8 79.45 67.64 79.5ZM 53.18 82.83C 53.57 83.21 55.5 85.07 55.5 85.07 55.5 85.07 60.06 80.51 60.76 79.66 61.45 78.81 62.77 78.5 63.93 79.66 65.09 80.82 64.78 82.29 64.24 82.9 63.69 83.52 57.36 89.78 56.58 90.4 55.81 91.02 54.73 90.79 54.34 90.32 53.96 89.86 50.25 86.46 49.78 85.76 49.32 85.07 49.4 84.06 50.48 83.06 51.56 82.05 52.8 82.44 53.18 82.83ZM 48.06 72.92C 48.06 71.73 49.03 70.77 50.21 70.77 50.21 70.77 65.74 70.77 65.74 70.77 65.6 71.19 65.48 71.71 65.39 72.35 65.26 73.37 65.3 74.39 65.35 75.07 65.35 75.07 50.21 75.07 50.21 75.07 49.03 75.07 48.06 74.1 48.06 72.92ZM 50.21 66.95C 49.03 66.95 48.06 65.99 48.06 64.8 48.06 63.62 49.03 62.66 50.21 62.66 50.21 62.66 68.62 62.66 68.62 62.66 68.6 62.84 68.6 63.04 68.6 63.24 68.6 65.1 68.99 66.34 69.25 66.95 69.25 66.95 50.21 66.95 50.21 66.95ZM 48.06 48.57C 48.06 47.39 49.03 46.43 50.21 46.43 50.21 46.43 80.48 46.43 80.48 46.43 79.93 47.13 78.63 48.78 77.11 50.72 77.11 50.72 50.21 50.72 50.21 50.72 49.03 50.72 48.06 49.76 48.06 48.57ZM 50.21 58.84C 49.03 58.84 48.06 57.87 48.06 56.69 48.06 55.5 49.03 54.54 50.21 54.54 50.21 54.54 74.11 54.54 74.11 54.54 72.85 56.16 71.64 57.71 70.77 58.84 70.77 58.84 50.21 58.84 50.21 58.84ZM 80.45 38.85C 80.45 38.85 48.08 38.85 48.08 38.85 45.99 38.85 44.3 40.55 44.3 42.64 44.3 42.64 44.3 90.25 44.3 90.25 44.3 92.34 45.99 94.03 48.08 94.03 48.08 94.03 74.5 94.03 74.5 94.03 74.5 94.03 74.48 84.27 74.48 84.27 74.48 84.27 84.24 84.3 84.24 84.3 84.24 84.3 84.24 72.11 84.24 72.11 84.24 72.11 88.03 68.12 88.03 68.12 88.03 68.12 88.03 85.83 88.03 85.83 88.03 85.83 75.67 98.18 75.67 98.18 75.67 98.18 48.62 98.18 48.62 98.18 44.14 98.18 40.51 94.55 40.51 90.07 40.51 90.07 40.51 43.09 40.51 43.09 40.51 38.61 44.14 34.98 48.62 34.98 48.62 34.98 79.91 34.98 79.91 34.98 82.84 34.98 85.39 36.53 86.82 38.85 86.82 38.85 84.2 42.14 84.2 42.14 83.96 40.28 82.37 38.85 80.45 38.85Z" fill="rgb(49,189,235)"/></svg>