<?xml version="1.0" encoding="utf-8"?>
<svg xmlns="http://www.w3.org/2000/svg"
	xmlns:xlink="http://www.w3.org/1999/xlink"
	width="177px" height="130px" viewBox="0 0 177 130">
<style type="text/css"><![CDATA[
.style0 {
  font-size: 20px;
  font-family: "Arial";
  font-weight: 400;
  fill: rgb(104,104,104);
}
.style1 {
  font-size: 14px;
  font-family: "Arial";
  font-weight: 400;
  fill: rgb(48,177,217);
  text-transform: uppercase;
}
]]></style>
<filter filterUnits="objectBoundingBox" x="-7.89" y="-7.89" width="115.79" height="115.79" id="filter0">
<feGaussianBlur in="SourceAlpha" stdDeviation="1.50" result="dsBlurOut1"/>
<feFlood flood-color="rgb(0,0,0)" flood-opacity="0.30" result="dsFloodOut1"/>
<feComposite in="dsFloodOut1" in2="dsBlurOut1" operator="in" result="dsShadow1"/>
<feOffset in="dsShadow1" dx="-0.00" dy="1.00" result="dsOffset1"/>
<feComposite in="dsOffset1" in2="SourceAlpha" operator="out" result="dropShadow1"/>
<feBlend in="dropShadow1" in2="SourceGraphic" mode="normal" result="sourceGraphic"/>
</filter>
<clipPath id="clip0"><circle cx="21.00" cy="20.00" r="19.00"/></clipPath><defs>
<symbol id="symbol0"><circle cx="125.00" cy="103.00" r="19.00"/></symbol></defs>
<path fillRule="evenodd" d="M 126.8 79.59C 127.9 74.9 128.5 70.02 128.5 65 128.5 29.93 100.07 1.5 65 1.5 29.93 1.5 1.5 29.93 1.5 65 1.5 100.07 29.93 128.5 65 128.5 79.98 128.5 93.74 123.3 104.59 114.63 104.84 115.06 105.1 115.5 105.38 115.92 94.29 124.72 80.26 130 65 130 29.1 130-0 100.9-0 65-0 29.1 29.1-0 65-0 100.9-0 130 29.1 130 65 130 70.08 129.4 75.01 128.3 79.76 127.8 79.69 127.3 79.63 126.8 79.59Z" fill="rgb(49,189,235)"/><g><circle cx="125.00" cy="103.00" r="19.00" fill="rgb(233,247,253)" filter="url(#filter0)"/><use xlink:href="#symbol0" x="104" y="83" width="42" height="42" fill="none" stroke="rgb(255,255,255)" stroke-width="2.00px" stroke-opacity="0.30" clip-path="url(#clip0)"/></g><text transform="translate(125.00,110.00)" class="style0"><tspan x="-5.56" fill="rgb(103,103,103)">2</tspan></text><text transform="translate(162.00,112.00)" class="style1"><tspan x="-14.88 -2.04 7.29" fill="rgb(48,176,216)">шаг</tspan></text><path fillRule="evenodd" d="M 85.63 88.63C 74.7 90.74 68.38 94.53 68.38 94.53 68.38 94.53 65.47 94.53 65.47 94.53 65.47 94.53 59.15 90.74 48.22 88.63 38.58 86.76 25.88 87.82 25.88 87.82 25.88 87.82 25.88 37.96 25.88 37.96 25.88 37.96 41.59 37.38 53.18 39.7 61.8 41.43 66.44 45.65 66.44 45.65 66.44 45.65 67.42 45.65 67.42 45.65 67.42 45.65 72.06 41.43 80.67 39.7 92.27 37.38 108.24 37.96 108.24 37.96 108.24 37.96 108.24 87.82 108.24 87.82 108.24 87.82 95.28 86.76 85.63 88.63ZM 64.89 50.01C 64.89 50.01 64.61 48.53 64.61 48.53 64.61 48.53 58.64 44.51 51.92 42.85 41.72 40.32 28.98 41.17 28.98 41.17 28.98 41.17 28.98 83.52 28.98 83.52 28.98 83.52 39.4 83.84 48.04 85.12 60.58 86.98 64.89 90.51 64.89 90.51 64.89 90.51 64.89 50.01 64.89 50.01ZM 105.01 41.17C 105.01 41.17 92.14 40.32 81.94 42.85 75.21 44.51 69.24 48.53 69.24 48.53 69.24 48.53 69.14 50.71 69.14 50.71 69.14 50.71 69.14 90.51 69.14 90.51 69.14 90.51 73.28 86.98 85.82 85.12 94.45 83.84 105.01 83.52 105.01 83.52 105.01 83.52 105.01 41.17 105.01 41.17ZM 89.77 65.84C 89.11 65.84 88.32 66.1 84.1 67.03 79.87 67.95 73.67 70.59 73.01 71.25 72.35 71.91 72.09 71.25 72.09 69.4 72.09 67.55 72.88 67.29 72.88 67.29 72.88 67.29 77.1 65.05 82.38 63.73 87.66 62.41 88.32 62.54 89.9 62.54 90.69 62.54 90.96 62.67 90.96 64.12 90.96 65.58 90.43 65.84 89.77 65.84ZM 100.32 58.19C 99.66 58.19 88.32 58.71 84.1 59.64 79.87 60.56 73.67 63.2 73.01 63.86 72.35 64.52 72.09 63.86 72.09 62.01 72.09 60.17 72.88 59.9 72.88 59.9 72.88 59.9 76.31 57.79 82.64 56.34 87.95 55.12 98.87 54.89 100.46 54.89 101.25 54.89 101.51 55.02 101.51 56.47 101.51 57.92 100.98 58.19 100.32 58.19ZM 100.32 50.8C 99.66 50.8 88.32 51.33 84.1 52.25 79.87 53.17 73.67 55.81 73.01 56.47 72.35 57.13 72.09 56.47 72.09 54.62 72.09 52.78 72.88 52.51 72.88 52.51 72.88 52.51 74.46 50.67 82.91 48.69 88.21 47.45 98.87 47.5 100.46 47.5 101.25 47.5 101.51 47.63 101.51 49.08 101.51 50.53 100.98 50.8 100.32 50.8ZM 32.34 71.25C 32.34 69.8 32.61 69.67 33.4 69.67 34.98 69.67 45.8 69.53 51.08 70.85 56.36 72.17 60.97 74.68 60.97 74.68 60.97 74.68 61.77 74.94 61.77 76.79 61.77 78.64 61.5 79.3 60.84 78.64 60.18 77.98 53.98 75.34 49.76 74.42 45.54 73.49 34.19 72.96 33.53 72.96 32.87 72.96 32.34 72.7 32.34 71.25ZM 60.84 71.25C 60.18 70.59 53.98 67.95 49.76 67.03 45.54 66.1 34.19 65.58 33.53 65.58 32.87 65.58 32.34 65.31 32.34 63.86 32.34 62.41 32.61 62.28 33.4 62.28 34.98 62.28 46.2 62.41 51.47 63.73 56.75 65.05 60.97 67.29 60.97 67.29 60.97 67.29 61.77 67.55 61.77 69.4 61.77 71.25 61.5 71.91 60.84 71.25ZM 60.84 63.86C 60.18 63.2 53.98 60.56 49.76 59.64 45.54 58.71 34.19 58.19 33.53 58.19 32.87 58.19 32.34 57.92 32.34 56.47 32.34 55.02 32.61 54.89 33.4 54.89 34.98 54.89 45.91 55.12 51.21 56.34 57.54 57.79 60.97 59.9 60.97 59.9 60.97 59.9 61.77 60.17 61.77 62.01 61.77 63.86 61.5 64.52 60.84 63.86ZM 60.84 56.47C 60.18 55.81 53.98 53.17 49.76 52.25 45.54 51.33 34.19 50.8 33.53 50.8 32.87 50.8 32.34 50.53 32.34 49.08 32.34 47.63 32.61 47.5 33.4 47.5 34.98 47.5 45.65 47.45 50.95 48.69 59.39 50.67 60.97 52.51 60.97 52.51 60.97 52.51 61.77 52.78 61.77 54.62 61.77 56.47 61.5 57.13 60.84 56.47Z" fill="rgb(49,189,235)"/></svg>