<?xml version="1.0" encoding="utf-8"?>
<svg xmlns="http://www.w3.org/2000/svg"
	xmlns:xlink="http://www.w3.org/1999/xlink"
	width="177px" height="130px" viewBox="0 0 177 130">
<style type="text/css"><![CDATA[
.style0 {
  font-size: 20px;
  font-family: "Arial";
  font-weight: 400;
  fill: rgb(104,104,104);
}
.style1 {
  font-size: 14px;
  font-family: "Arial";
  font-weight: 400;
  fill: rgb(48,177,217);
  text-transform: uppercase;
}
]]></style>
<filter filterUnits="objectBoundingBox" x="-7.89" y="-7.89" width="115.79" height="115.79" id="filter0">
<feGaussianBlur in="SourceAlpha" stdDeviation="1.50" result="dsBlurOut1"/>
<feFlood flood-color="rgb(0,0,0)" flood-opacity="0.30" result="dsFloodOut1"/>
<feComposite in="dsFloodOut1" in2="dsBlurOut1" operator="in" result="dsShadow1"/>
<feOffset in="dsShadow1" dx="-0.00" dy="1.00" result="dsOffset1"/>
<feComposite in="dsOffset1" in2="SourceAlpha" operator="out" result="dropShadow1"/>
<feBlend in="dropShadow1" in2="SourceGraphic" mode="normal" result="sourceGraphic"/>
</filter>
<clipPath id="clip0"><circle cx="21.00" cy="20.00" r="19.00"/></clipPath><defs>
<symbol id="symbol0"><circle cx="125.00" cy="103.00" r="19.00"/></symbol></defs>
<path fillRule="evenodd" d="M 126.8 79.59C 127.9 74.9 128.5 70.02 128.5 65 128.5 29.93 100.07 1.5 65 1.5 29.93 1.5 1.5 29.93 1.5 65 1.5 100.07 29.93 128.5 65 128.5 79.98 128.5 93.74 123.3 104.59 114.63 104.84 115.06 105.1 115.5 105.38 115.92 94.29 124.72 80.26 130 65 130 29.1 130-0 100.9-0 65-0 29.1 29.1-0 65-0 100.9-0 130 29.1 130 65 130 70.08 129.4 75.01 128.3 79.76 127.8 79.69 127.3 79.63 126.8 79.59Z" fill="rgb(49,189,235)"/><g><circle cx="125.00" cy="103.00" r="19.00" fill="rgb(233,247,253)" filter="url(#filter0)"/><use xlink:href="#symbol0" x="104" y="83" width="42" height="42" fill="none" stroke="rgb(255,255,255)" stroke-width="2.00px" stroke-opacity="0.30" clip-path="url(#clip0)"/></g><text transform="translate(126.00,110.00)" class="style0"><tspan x="-5.56" fill="rgb(103,103,103)">3</tspan></text><text transform="translate(162.00,112.00)" class="style1"><tspan x="-14.88 -2.04 7.29" fill="rgb(48,176,216)">шаг</tspan></text><path fillRule="evenodd" d="M 84.71 98.18C 84.71 98.18 70.75 98.18 70.75 98.18 70.75 98.18 66.33 98.18 66.33 98.18 66.33 98.18 52.37 98.18 52.37 98.18 47.89 98.18 44.26 94.55 44.26 90.07 44.26 90.07 44.26 43.09 44.26 43.09 44.26 38.61 47.89 34.98 52.37 34.98 52.37 34.98 66.33 34.98 66.33 34.98 66.33 34.98 70.75 34.98 70.75 34.98 70.75 34.98 84.71 34.98 84.71 34.98 89.19 34.98 92.82 38.61 92.82 43.09 92.82 43.09 92.82 90.07 92.82 90.07 92.82 94.55 89.19 98.18 84.71 98.18ZM 89.04 42.64C 89.04 40.55 87.34 38.85 85.25 38.85 85.25 38.85 70.75 38.85 70.75 38.85 70.75 38.85 66.33 38.85 66.33 38.85 66.33 38.85 51.83 38.85 51.83 38.85 49.74 38.85 48.05 40.55 48.05 42.64 48.05 42.64 48.05 90.25 48.05 90.25 48.05 92.34 49.74 94.03 51.83 94.03 51.83 94.03 66.33 94.03 66.33 94.03 66.33 94.03 70.75 94.03 70.75 94.03 70.75 94.03 85.25 94.03 85.25 94.03 87.34 94.03 89.04 92.34 89.04 90.25 89.04 90.25 89.04 42.64 89.04 42.64ZM 82.32 75.1C 82.32 75.1 54.21 75.1 54.21 75.1 53.03 75.1 52.06 74.13 52.06 72.95 52.06 72.94 52.07 72.94 52.07 72.93 52.07 72.93 52.06 72.92 52.06 72.92 52.06 71.73 53.03 70.77 54.21 70.77 54.21 70.77 82.32 70.78 82.32 70.78 83.51 70.78 84.47 71.74 84.47 72.93 84.47 72.93 84.47 72.94 84.47 72.94 84.47 72.95 84.47 72.95 84.47 72.96 84.47 74.14 83.51 75.1 82.32 75.1ZM 82.32 66.96C 82.32 66.96 54.21 66.95 54.21 66.95 53.03 66.95 52.06 65.99 52.06 64.8 52.06 63.62 53.03 62.66 54.21 62.66 54.21 62.66 82.32 62.66 82.32 62.66 83.51 62.66 84.47 63.62 84.47 64.81 84.47 66 83.51 66.96 82.32 66.96ZM 82.32 58.84C 82.32 58.84 54.21 58.84 54.21 58.84 53.03 58.84 52.06 57.87 52.06 56.69 52.06 55.5 53.03 54.54 54.21 54.54 54.21 54.54 82.32 54.55 82.32 54.55 83.51 54.55 84.47 55.51 84.47 56.7 84.47 57.88 83.51 58.84 82.32 58.84ZM 82.32 50.73C 82.32 50.73 54.21 50.72 54.21 50.72 53.03 50.72 52.06 49.76 52.06 48.57 52.06 47.39 53.03 46.43 54.21 46.43 54.21 46.43 82.32 46.43 82.32 46.43 83.51 46.43 84.47 47.4 84.47 48.58 84.47 49.77 83.51 50.73 82.32 50.73ZM 54.21 78.92C 54.21 78.92 63.32 78.92 63.32 78.92 64.51 78.92 65.47 79.89 65.47 81.07 65.47 82.26 64.51 83.22 63.32 83.22 63.32 83.22 54.21 83.21 54.21 83.21 53.03 83.21 52.06 82.25 52.06 81.06 52.06 79.88 53.03 78.92 54.21 78.92ZM 54.21 87.03C 54.21 87.03 63.32 87.04 63.32 87.04 64.51 87.04 65.47 88 65.47 89.19 65.47 90.37 64.51 91.33 63.32 91.33 63.32 91.33 54.21 91.33 54.21 91.33 53.03 91.33 52.06 90.36 52.06 89.18 52.06 87.99 53.03 87.03 54.21 87.03ZM 69.48 83.06C 70.56 82.05 71.8 82.44 72.18 82.83 72.57 83.21 74.5 85.07 74.5 85.07 74.5 85.07 79.06 80.51 79.76 79.66 80.45 78.81 81.77 78.5 82.93 79.66 84.09 80.82 83.78 82.29 83.24 82.9 82.69 83.52 76.36 89.78 75.58 90.4 74.81 91.02 73.73 90.79 73.34 90.32 72.96 89.86 69.25 86.46 68.78 85.76 68.32 85.07 68.4 84.06 69.48 83.06Z" fill="rgb(49,189,235)"/></svg>