<svg id="Logo_copy" data-name="Logo copy" xmlns="http://www.w3.org/2000/svg" width="173" height="50" viewBox="0 0 173 50">
  <defs>
    <style>
      .cls-1 {
        fill: #32beeb;
        fill-rule: evenodd;
      }

      .cls-2 {
        font-size: 23px;
        fill: #282828;
        font-weight: 700;
        text-transform: uppercase;
      }

      .cls-2, .cls-3 {
        font-family: Arial;
      }

      .cls-3 {
        font-size: 13px;
        fill: #676767;
      }
    </style>
  </defs>
  <path class="cls-1" d="M339.171,55.156h0.016a15.635,15.635,0,0,0-4.349,7.54c-0.869,3.211-.615,5.256-2.276,5.273a0.142,0.142,0,0,1-.093-0.045,0.144,0.144,0,0,1-.094.045c-1.661-.017-1.406-2.062-2.275-5.273a15.641,15.641,0,0,0-4.35-7.54h0.032A9.461,9.461,0,1,1,339.171,55.156Zm-6.71-11.234a4.539,4.539,0,1,1-4.539,4.539A4.539,4.539,0,0,1,332.461,43.921Z" transform="translate(-298.5 -18.984)"/>
  <path id="Ellipse_11_copy" data-name="Ellipse 11 copy" class="cls-1" d="M307.125,35s8.812,3.125,8.812,6.875c0,5.188-7,4.875-7,11,0,7,14.938,6.063,14.938,6.063l3.062,8.938S302,69.5,302,54.625c0-9,10-9.312,10-13.188,0-2.687-3.75-4.375-6-6.437h1.125Z" transform="translate(-298.5 -18.984)"/>
  <path class="cls-1" d="M300.326,27.787h0.015a4.56,4.56,0,1,1,6.454,0H306.8a7.544,7.544,0,0,0-2.1,3.634c-0.419,1.548-.3,2.534-1.1,2.542a0.058,0.058,0,0,0-.09,0c-0.8-.008-0.678-0.993-1.1-2.542m-1.05-6.861a2.188,2.188,0,1,1,2.188,2.188" transform="translate(-298.5 -18.984)"/>
  <text id="trucking_" data-name="trucking " class="cls-2" x="52" y="25">trucking </text>
  <text id="грузовые_перевозки_" data-name="грузовые перевозки " class="cls-3" x="53.999" y="39">грузовые перевозки </text>
</svg>
